<svg xmlns="http://www.w3.org/2000/svg" viewBox="142.29 262.529 397.68000122070316 203.36735153198242"> <g transform="rotate(0 253.3951025390625 364.2126757659912)"><svg xmlns="http://www.w3.org/2000/svg" xmlns:xlink="http://www.w3.org/1999/xlink" xmlnsSerif="http://www.serif.com/" viewBox="1.9975001811981201 2.003999948501587 144.00682067871094 111" version="1.1" xml:space="preserve" height="63.36735153198242" width="82.210205078125" y="332.529" x="212.29" preserveAspectRatio="xMinYMin" fill-rule="evenodd" clip-rule="evenodd" stroke-linejoin="round" stroke-miterlimit="2" style="overflow: visible;"><path id="path4" d="M108.682,101.523C102.47,101.523 96.774,98.068 93.903,92.559L85.604,76.649L82.263,83.071C85.48,89.245 86.083,90.403 88.638,95.304C92.534,102.776 100.259,107.46 108.682,107.46C117.115,107.46 124.839,102.776 128.735,95.304C133.081,86.965 139.245,75.151 144.318,65.415C146.721,60.802 146.548,55.267 143.849,50.818C141.15,46.369 136.326,43.653 131.118,43.653L98.411,43.653C93.214,43.653 88.389,46.369 85.69,50.818C85.661,50.873 85.623,50.928 85.594,50.985C85.594,50.985 64.613,91.235 61.856,96.517C58.477,103.001 51.767,107.067 44.454,107.067C37.141,107.067 30.432,103.001 27.053,96.517L9.124,62.139C7.392,58.812 7.574,54.82 9.517,51.612C11.46,48.403 14.944,46.443 18.696,46.443L56.869,46.443C60.621,46.443 64.106,48.403 66.049,51.612C67.992,54.82 68.126,58.812 66.384,62.139C64.125,66.471 64.364,66.01 61.933,70.688L65.283,77.109C67.714,72.431 69.389,69.216 71.648,64.884C74.347,59.716 74.146,53.517 71.122,48.533C68.107,43.549 62.698,40.505 56.869,40.505L18.696,40.505C12.867,40.505 7.459,43.549 4.444,48.533C1.419,53.517 1.17,59.717 3.86,64.884C9.699,76.082 16.792,89.67 21.788,99.262C26.191,107.708 34.93,113.004 44.454,113.004C53.978,113.004 62.718,107.708 67.121,99.262C69.801,94.126 89.71,55.932 90.811,53.821C92.448,51.191 95.32,49.59 98.411,49.59L131.118,49.59C134.248,49.59 137.149,51.223 138.766,53.897C140.394,56.571 140.499,59.897 139.054,62.67C133.98,72.406 127.816,84.22 123.471,92.559C120.599,98.068 114.894,101.523 108.682,101.523ZM109.084,6.433C99.981,6.433 92.601,13.819 92.601,22.916C92.601,32.013 99.981,39.4 109.084,39.4C118.177,39.4 125.567,32.013 125.567,22.916C125.567,13.819 118.177,6.433 109.084,6.433ZM38.797,2.004C29.321,2.004 21.625,9.699 21.625,19.177C21.625,28.656 29.321,36.351 38.797,36.351C48.274,36.351 55.969,28.656 55.969,19.177C55.969,9.699 48.274,2.004 38.797,2.004ZM109.084,12.371C114.904,12.371 119.623,17.096 119.623,22.916C119.623,28.737 114.904,33.461 109.084,33.461C103.264,33.461 98.536,28.737 98.536,22.916C98.536,17.096 103.264,12.371 109.084,12.371ZM38.797,7.942C45,7.942 50.035,12.976 50.035,19.177C50.035,25.379 45,30.414 38.797,30.414C32.595,30.414 27.56,25.379 27.56,19.177C27.56,12.976 32.595,7.942 38.797,7.942Z" style="fill: #EABD23; fill-opacity: 1;"></path></svg></g> <svg y="381.896" viewBox="0.3500000238418579 2.799999952316284 119.98999786376953 13.999999046325684" x="345.41500564575193" height="13.999999046325684" width="119.98999786376953" style="overflow: visible;"><g fill="#EABD23" fill-opacity="1" style=""><path d="M2.94 14.10L2.94 14.10Q2.79 14.10 2.58 14.05Q2.38 14 2.18 13.88Q1.99 13.76 1.86 13.55Q1.74 13.33 1.74 12.98L1.74 12.98Q1.74 12.49 1.97 11.68Q2.21 10.88 2.52 9.90L2.52 9.90Q2.76 9.14 2.98 8.33Q3.21 7.52 3.35 6.71Q3.50 5.89 3.50 5.15L3.50 5.15Q3.50 4.63 3.46 4.19Q3.43 3.74 3.25 3.46Q3.08 3.19 2.66 3.19L2.66 3.19Q2.27 3.19 2.00 3.42Q1.72 3.65 1.55 4.02Q1.37 4.38 1.29 4.79Q1.22 5.19 1.22 5.54L1.22 5.54Q1.22 6.01 1.34 6.30L1.34 6.30Q0.80 6.30 0.57 6.00Q0.35 5.70 0.35 5.29L0.35 5.29Q0.35 4.86 0.55 4.42Q0.76 3.99 1.11 3.62Q1.47 3.25 1.93 3.02Q2.39 2.80 2.91 2.80L2.91 2.80Q3.78 2.80 4.21 3.48Q4.63 4.16 4.63 5.29L4.63 5.29Q4.63 6.31 4.35 7.46Q4.06 8.60 3.71 9.67L3.71 9.67Q3.49 10.37 3.28 11.01Q3.08 11.65 2.95 12.18Q2.83 12.71 2.83 13.12L2.83 13.12Q2.83 13.38 2.91 13.52Q3.00 13.66 3.25 13.66L3.25 13.66Q3.60 13.66 4.03 13.34Q4.45 13.01 4.89 12.45Q5.33 11.89 5.75 11.21Q6.16 10.53 6.50 9.81Q6.85 9.10 7.08 8.46Q7.31 7.81 7.36 7.35L7.36 7.35Q7.83 7.35 8.02 7.59Q8.20 7.83 8.20 8.04L8.20 8.04Q8.20 8.26 8.02 8.72Q7.84 9.18 7.59 9.76L7.59 9.76Q7.38 10.26 7.16 10.84Q6.94 11.41 6.80 11.98Q6.65 12.56 6.65 13.08L6.65 13.08Q6.65 13.34 6.72 13.50Q6.79 13.66 7.04 13.66L7.04 13.66Q7.43 13.66 7.95 13.27Q8.47 12.87 9.02 12.17Q9.58 11.48 10.10 10.61Q10.63 9.74 11.05 8.80Q11.47 7.85 11.72 6.94Q11.97 6.03 11.97 5.26L11.97 5.26Q11.97 4.56 11.76 4.24Q11.55 3.91 11.20 3.81L11.20 3.81Q11.40 3.47 11.61 3.32Q11.83 3.16 12.01 3.16L12.01 3.16Q12.31 3.16 12.59 3.54Q12.87 3.92 12.87 4.72L12.87 4.72Q12.87 5.49 12.58 6.47Q12.29 7.45 11.80 8.51Q11.31 9.56 10.68 10.56Q10.05 11.55 9.37 12.35Q8.68 13.15 8.01 13.62Q7.34 14.10 6.76 14.10L6.76 14.10Q6.50 14.10 6.22 13.99Q5.94 13.87 5.75 13.64Q5.56 13.41 5.56 13.05L5.56 13.05Q5.56 12.84 5.63 12.51Q5.71 12.18 5.84 11.79L5.84 11.79Q5.12 12.80 4.38 13.45Q3.63 14.10 2.94 14.10ZM13.13 13.41L13.13 13.41Q12.87 13.41 12.71 12.96Q12.56 12.52 12.56 11.96L12.56 11.96Q12.56 11.28 12.78 10.36Q13.01 9.44 13.37 8.41Q13.73 7.39 14.19 6.41Q14.64 5.43 15.12 4.63Q15.60 3.84 16.02 3.36Q16.44 2.88 16.74 2.88L16.74 2.88Q17.00 2.88 17.10 3.19Q17.21 3.49 17.21 3.77L17.21 3.77Q17.21 4.16 17.03 4.72Q16.86 5.28 16.55 5.92Q16.24 6.55 15.83 7.17Q15.43 7.78 14.95 8.30Q14.48 8.81 13.99 9.10L13.99 9.10Q13.82 9.51 13.70 10.01Q13.58 10.51 13.52 11.00Q13.47 11.48 13.47 11.86L13.47 11.86Q13.47 12.01 13.47 12.12Q13.48 12.24 13.50 12.33L13.50 12.33Q13.69 11.76 13.92 11.22Q14.15 10.68 14.42 10.23Q14.69 9.77 14.99 9.43Q15.29 9.09 15.62 8.90Q15.96 8.71 16.34 8.71L16.34 8.71Q16.73 8.71 16.96 8.90Q17.19 9.09 17.30 9.37Q17.40 9.66 17.40 9.97L17.40 9.97Q17.40 10.40 17.25 10.81Q17.11 11.21 16.95 11.59Q16.80 11.97 16.80 12.32L16.80 12.32Q16.80 12.60 16.92 12.73Q17.04 12.85 17.22 12.85L17.22 12.85Q17.54 12.85 17.94 12.54Q18.34 12.24 18.73 11.73Q19.12 11.21 19.40 10.61L19.40 10.61L19.59 10.78Q19.29 11.47 18.87 12.02Q18.45 12.57 17.95 12.89Q17.44 13.22 16.90 13.22L16.90 13.22Q16.42 13.22 16.18 12.96Q15.93 12.71 15.93 12.33L15.93 12.33Q15.93 12.04 16.04 11.68Q16.16 11.31 16.26 10.93Q16.37 10.56 16.37 10.22L16.37 10.22Q16.37 9.86 16.21 9.70Q16.06 9.55 15.83 9.55L15.83 9.55Q15.48 9.55 15.20 9.83Q14.92 10.11 14.69 10.55Q14.46 10.99 14.26 11.48Q14.06 11.97 13.87 12.41Q13.69 12.85 13.51 13.13Q13.33 13.41 13.13 13.41ZM14.17 8.55L14.17 8.55Q14.56 8.25 14.93 7.77Q15.30 7.29 15.62 6.76Q15.95 6.22 16.20 5.70Q16.45 5.18 16.59 4.76Q16.73 4.34 16.73 4.13L16.73 4.13Q16.73 4.06 16.72 4.04Q16.70 4.02 16.67 4.02L16.67 4.02Q16.58 4.02 16.27 4.40Q15.97 4.79 15.58 5.43Q15.19 6.08 14.81 6.89Q14.43 7.70 14.17 8.55ZM20.65 13.50L20.65 13.50Q19.80 13.50 19.37 13.03Q18.94 12.56 18.94 11.87L18.94 11.87Q18.94 11.24 19.26 10.54Q19.57 9.84 20.10 9.23Q20.62 8.61 21.25 8.23Q21.88 7.84 22.50 7.84L22.50 7.84Q22.82 7.84 23.09 8.01Q23.37 8.18 23.37 8.69L23.37 8.69Q23.37 9.23 23.05 9.70Q22.74 10.16 22.22 10.53Q21.71 10.89 21.10 11.12Q20.50 11.35 19.89 11.41L19.89 11.41Q19.87 11.55 19.85 11.68Q19.84 11.80 19.84 11.91L19.84 11.91Q19.84 12.12 19.89 12.33Q19.94 12.54 20.06 12.72Q20.19 12.89 20.40 12.99Q20.62 13.09 20.94 13.09L20.94 13.09Q21.55 13.09 22.13 12.75Q22.72 12.40 23.23 11.84Q23.73 11.28 24.08 10.61L24.08 10.61L24.25 10.74Q23.87 11.58 23.29 12.19Q22.71 12.81 22.03 13.15Q21.35 13.50 20.65 13.50ZM19.96 11.14L19.96 11.14Q20.34 11.02 20.82 10.77Q21.29 10.53 21.73 10.19Q22.18 9.86 22.46 9.45Q22.75 9.04 22.75 8.60L22.75 8.60Q22.75 8.44 22.69 8.36Q22.64 8.27 22.46 8.27L22.46 8.27Q22.12 8.27 21.74 8.53Q21.36 8.79 21.01 9.21Q20.66 9.63 20.38 10.14Q20.10 10.64 19.96 11.14ZM26.22 13.24L26.22 13.24Q25.75 13.24 25.47 12.99Q25.20 12.74 25.20 12.33L25.20 12.33Q25.20 11.91 25.40 11.45Q25.59 10.99 25.78 10.54Q25.97 10.08 25.97 9.72L25.97 9.72Q25.97 9.27 25.71 9.05Q25.45 8.83 25.19 8.65L25.19 8.65Q24.86 9.48 24.51 10.22Q24.16 10.96 23.94 11.34L23.94 11.34L23.81 11.10Q24.01 10.74 24.32 10.04Q24.64 9.34 24.95 8.44L24.95 8.44Q24.81 8.30 24.81 8.11L24.81 8.11Q24.81 7.69 25.05 7.42Q25.28 7.15 25.40 7.15L25.40 7.15Q25.55 7.15 25.57 7.29Q25.59 7.42 25.59 7.49L25.59 7.49Q25.59 7.56 25.51 7.76Q25.44 7.97 25.44 8.01L25.44 8.01Q25.44 8.20 25.65 8.37Q25.87 8.53 26.15 8.73Q26.43 8.93 26.65 9.22Q26.87 9.51 26.87 9.95L26.87 9.95Q26.87 10.37 26.69 10.81Q26.52 11.24 26.34 11.63Q26.17 12.03 26.17 12.32L26.17 12.32Q26.17 12.57 26.29 12.66Q26.42 12.74 26.59 12.74L26.59 12.74Q26.92 12.74 27.28 12.53Q27.64 12.32 27.97 12.00Q28.31 11.68 28.57 11.32Q28.84 10.96 28.97 10.65L28.97 10.65L29.15 10.79Q28.88 11.38 28.42 11.95Q27.96 12.52 27.39 12.88Q26.82 13.24 26.22 13.24ZM30.18 13.50L30.18 13.50Q29.33 13.50 28.90 13.03Q28.48 12.56 28.48 11.87L28.48 11.87Q28.48 11.24 28.79 10.54Q29.11 9.84 29.63 9.23Q30.16 8.61 30.79 8.23Q31.42 7.84 32.03 7.84L32.03 7.84Q32.35 7.84 32.63 8.01Q32.90 8.18 32.90 8.69L32.90 8.69Q32.90 9.23 32.58 9.70Q32.27 10.16 31.76 10.53Q31.25 10.89 30.64 11.12Q30.03 11.35 29.43 11.41L29.43 11.41Q29.40 11.55 29.39 11.68Q29.37 11.80 29.37 11.91L29.37 11.91Q29.37 12.12 29.42 12.33Q29.47 12.54 29.60 12.72Q29.72 12.89 29.94 12.99Q30.16 13.09 30.48 13.09L30.48 13.09Q31.08 13.09 31.67 12.75Q32.26 12.40 32.76 11.84Q33.26 11.28 33.61 10.61L33.61 10.61L33.78 10.74Q33.40 11.58 32.82 12.19Q32.24 12.81 31.56 13.15Q30.88 13.50 30.18 13.50ZM29.50 11.14L29.50 11.14Q29.88 11.02 30.35 10.77Q30.83 10.53 31.27 10.19Q31.71 9.86 32.00 9.45Q32.28 9.04 32.28 8.60L32.28 8.60Q32.28 8.44 32.23 8.36Q32.17 8.27 31.99 8.27L31.99 8.27Q31.65 8.27 31.28 8.53Q30.90 8.79 30.55 9.21Q30.20 9.63 29.92 10.14Q29.64 10.64 29.50 11.14ZM37.65 13.54L37.65 13.54Q37.21 13.54 36.91 13.25Q36.61 12.96 36.61 12.38L36.61 12.38Q36.61 11.87 36.83 11.29Q37.06 10.71 37.45 10.14Q37.84 9.58 38.34 9.11Q38.84 8.64 39.39 8.36Q39.94 8.08 40.49 8.08L40.49 8.08Q41.03 8.08 41.40 8.37Q41.76 8.65 41.76 9.13L41.76 9.13Q41.76 9.48 41.57 9.60Q41.38 9.73 41.08 9.73L41.08 9.73Q41.10 9.62 41.13 9.49Q41.15 9.35 41.15 9.24L41.15 9.24Q41.15 8.92 40.99 8.69Q40.84 8.46 40.46 8.46L40.46 8.46Q40.07 8.46 39.66 8.73Q39.26 9.00 38.88 9.46Q38.50 9.91 38.21 10.44Q37.91 10.98 37.74 11.49Q37.58 12.01 37.58 12.42L37.58 12.42Q37.58 12.96 37.95 12.96L37.95 12.96Q38.28 12.96 38.65 12.66Q39.03 12.36 39.43 11.89Q39.83 11.42 40.19 10.92Q40.56 10.42 40.84 10.00L40.84 10.00Q40.89 9.91 40.91 9.91L40.91 9.91Q40.99 9.93 41.13 9.97Q41.26 10.01 41.36 10.08Q41.45 10.15 41.45 10.26L41.45 10.26Q41.45 10.39 41.33 10.61Q41.20 10.82 41.05 11.10Q40.89 11.38 40.77 11.67Q40.64 11.96 40.64 12.21L40.64 12.21Q40.64 12.42 40.75 12.62Q40.87 12.82 41.12 12.82L41.12 12.82Q41.50 12.82 42.11 12.27Q42.73 11.72 43.36 10.61L43.36 10.61L43.50 10.75Q43.20 11.51 42.74 12.08Q42.28 12.66 41.75 12.98Q41.23 13.30 40.73 13.30L40.73 13.30Q40.21 13.30 39.96 12.99Q39.72 12.68 39.72 12.32L39.72 12.32Q39.72 12.24 39.73 12.13Q39.75 12.03 39.76 11.91L39.76 11.91Q39.16 12.73 38.66 13.13Q38.16 13.54 37.65 13.54ZM44.58 13.66L44.58 13.66Q43.90 13.66 43.46 13.22Q43.01 12.77 43.01 11.87L43.01 11.87Q43.01 11.17 43.28 10.51Q43.55 9.84 44.00 9.31Q44.45 8.78 45.00 8.46Q45.54 8.15 46.07 8.15L46.07 8.15Q46.65 8.15 46.86 8.48Q47.07 8.82 47.07 9.18L47.07 9.18Q47.07 9.59 46.88 9.90Q46.69 10.21 46.37 10.21L46.37 10.21Q46.13 10.21 45.96 10.00L45.96 10.00Q46.17 9.88 46.33 9.54Q46.48 9.20 46.48 8.89L46.48 8.89Q46.48 8.72 46.42 8.63Q46.35 8.54 46.17 8.54L46.17 8.54Q45.79 8.54 45.39 8.88Q45.00 9.21 44.65 9.74Q44.31 10.28 44.09 10.86Q43.88 11.45 43.88 11.97L43.88 11.97Q43.88 12.40 44.09 12.77Q44.30 13.13 44.90 13.13L44.90 13.13Q45.46 13.13 46.02 12.82Q46.59 12.52 47.08 11.94Q47.57 11.37 47.87 10.60L47.87 10.60L48.05 10.74Q47.73 11.58 47.17 12.24Q46.61 12.91 45.93 13.29Q45.26 13.66 44.58 13.66ZM49.10 13.66L49.10 13.66Q48.43 13.66 47.98 13.22Q47.53 12.77 47.53 11.87L47.53 11.87Q47.53 11.17 47.80 10.51Q48.08 9.84 48.52 9.31Q48.97 8.78 49.52 8.46Q50.06 8.15 50.60 8.15L50.60 8.15Q51.17 8.15 51.38 8.48Q51.59 8.82 51.59 9.18L51.59 9.18Q51.59 9.59 51.40 9.90Q51.21 10.21 50.89 10.21L50.89 10.21Q50.65 10.21 50.48 10.00L50.48 10.00Q50.69 9.88 50.85 9.54Q51.00 9.20 51.00 8.89L51.00 8.89Q51.00 8.72 50.94 8.63Q50.88 8.54 50.69 8.54L50.69 8.54Q50.32 8.54 49.92 8.88Q49.52 9.21 49.17 9.74Q48.83 10.28 48.61 10.86Q48.40 11.45 48.40 11.97L48.40 11.97Q48.40 12.40 48.61 12.77Q48.82 13.13 49.42 13.13L49.42 13.13Q49.98 13.13 50.55 12.82Q51.11 12.52 51.60 11.94Q52.09 11.37 52.39 10.60L52.39 10.60L52.57 10.74Q52.25 11.58 51.69 12.24Q51.13 12.91 50.46 13.29Q49.78 13.66 49.10 13.66ZM53.63 13.50L53.63 13.50Q52.78 13.50 52.35 13.03Q51.93 12.56 51.93 11.87L51.93 11.87Q51.93 11.24 52.24 10.54Q52.56 9.84 53.08 9.23Q53.61 8.61 54.24 8.23Q54.87 7.84 55.48 7.84L55.48 7.84Q55.80 7.84 56.08 8.01Q56.35 8.18 56.35 8.69L56.35 8.69Q56.35 9.23 56.03 9.70Q55.72 10.16 55.21 10.53Q54.70 10.89 54.09 11.12Q53.48 11.35 52.88 11.41L52.88 11.41Q52.85 11.55 52.84 11.68Q52.82 11.80 52.82 11.91L52.82 11.91Q52.82 12.12 52.87 12.33Q52.92 12.54 53.05 12.72Q53.17 12.89 53.39 12.99Q53.61 13.09 53.93 13.09L53.93 13.09Q54.53 13.09 55.12 12.75Q55.71 12.40 56.21 11.84Q56.71 11.28 57.06 10.61L57.06 10.61L57.23 10.74Q56.85 11.58 56.27 12.19Q55.69 12.81 55.01 13.15Q54.33 13.50 53.63 13.50ZM52.95 11.14L52.95 11.14Q53.33 11.02 53.80 10.77Q54.28 10.53 54.72 10.19Q55.16 9.86 55.45 9.45Q55.73 9.04 55.73 8.60L55.73 8.60Q55.73 8.44 55.68 8.36Q55.62 8.27 55.44 8.27L55.44 8.27Q55.10 8.27 54.73 8.53Q54.35 8.79 54.00 9.21Q53.65 9.63 53.37 10.14Q53.09 10.64 52.95 11.14ZM58.25 13.59L58.25 13.59Q57.60 13.59 57.21 13.31Q56.83 13.02 56.66 12.60Q56.50 12.18 56.50 11.76L56.50 11.76Q56.50 11.34 56.62 11.12Q56.73 10.89 56.89 10.78Q57.05 10.67 57.20 10.61Q57.34 10.56 57.40 10.50L57.40 10.50Q57.82 10.04 58.17 9.53Q58.52 9.03 58.79 8.47L58.79 8.47L58.79 8.30Q58.79 7.78 58.96 7.57Q59.14 7.35 59.33 7.35L59.33 7.35Q59.44 7.35 59.50 7.41Q59.56 7.46 59.56 7.53L59.56 7.53Q59.56 7.60 59.51 7.76Q59.47 7.91 59.47 8.15L59.47 8.15Q59.47 8.61 59.65 9.15Q59.84 9.69 60.02 10.28Q60.20 10.88 60.20 11.52L60.20 11.52Q60.20 11.70 60.18 11.88Q60.16 12.05 60.12 12.21L60.12 12.21Q60.61 12.12 61.04 11.77Q61.47 11.41 61.88 10.63L61.88 10.63L62.01 10.77Q61.74 11.54 61.21 11.94Q60.68 12.33 60.05 12.43L60.05 12.43Q59.82 13.03 59.34 13.31Q58.86 13.59 58.25 13.59ZM58.28 13.10L58.28 13.10Q58.45 13.10 58.73 12.99Q59.01 12.88 59.16 12.42L59.16 12.42Q58.58 12.31 58.12 11.96Q57.67 11.61 57.44 11.26L57.44 11.26Q57.13 11.27 57.13 11.75L57.13 11.75Q57.13 12.25 57.43 12.68Q57.74 13.10 58.28 13.10ZM59.23 12.19L59.23 12.19Q59.26 12.05 59.28 11.90Q59.29 11.75 59.29 11.54L59.29 11.54Q59.29 10.88 59.13 10.23Q58.97 9.58 58.86 9.00L58.86 9.00Q58.53 9.53 58.18 10.02Q57.82 10.50 57.50 10.82L57.50 10.82Q57.71 11.27 58.15 11.66Q58.59 12.05 59.23 12.19ZM63.08 13.59L63.08 13.59Q62.43 13.59 62.04 13.31Q61.66 13.02 61.49 12.60Q61.33 12.18 61.33 11.76L61.33 11.76Q61.33 11.34 61.45 11.12Q61.56 10.89 61.72 10.78Q61.88 10.67 62.03 10.61Q62.17 10.56 62.23 10.50L62.23 10.50Q62.65 10.04 63.00 9.53Q63.35 9.03 63.62 8.47L63.62 8.47L63.62 8.30Q63.62 7.78 63.79 7.57Q63.97 7.35 64.16 7.35L64.16 7.35Q64.27 7.35 64.33 7.41Q64.39 7.46 64.39 7.53L64.39 7.53Q64.39 7.60 64.34 7.76Q64.30 7.91 64.30 8.15L64.30 8.15Q64.30 8.61 64.48 9.15Q64.67 9.69 64.85 10.28Q65.03 10.88 65.03 11.52L65.03 11.52Q65.03 11.70 65.01 11.88Q64.99 12.05 64.95 12.21L64.95 12.21Q65.44 12.12 65.87 11.77Q66.30 11.41 66.71 10.63L66.71 10.63L66.84 10.77Q66.57 11.54 66.04 11.94Q65.51 12.33 64.88 12.43L64.88 12.43Q64.65 13.03 64.17 13.31Q63.69 13.59 63.08 13.59ZM63.11 13.10L63.11 13.10Q63.28 13.10 63.56 12.99Q63.84 12.88 63.99 12.42L63.99 12.42Q63.41 12.31 62.95 11.96Q62.50 11.61 62.27 11.26L62.27 11.26Q61.96 11.27 61.96 11.75L61.96 11.75Q61.96 12.25 62.26 12.68Q62.57 13.10 63.11 13.10ZM64.06 12.19L64.06 12.19Q64.09 12.05 64.11 11.90Q64.12 11.75 64.12 11.54L64.12 11.54Q64.12 10.88 63.96 10.23Q63.80 9.58 63.69 9.00L63.69 9.00Q63.36 9.53 63.01 10.02Q62.65 10.50 62.33 10.82L62.33 10.82Q62.54 11.27 62.98 11.66Q63.42 12.05 64.06 12.19ZM69.90 16.80L69.90 16.80Q69.76 16.80 69.58 16.71Q69.40 16.62 69.26 16.35Q69.13 16.09 69.13 15.57L69.13 15.57Q69.13 14.95 69.34 13.96Q69.55 12.98 69.92 11.79Q70.28 10.60 70.76 9.35Q71.23 8.09 71.78 6.92Q72.34 5.75 72.92 4.82Q73.50 3.89 74.06 3.35Q74.62 2.80 75.12 2.80L75.12 2.80Q75.42 2.80 75.51 2.98Q75.60 3.16 75.60 3.42L75.60 3.42Q75.60 4.02 75.27 4.73Q74.94 5.45 74.40 6.17Q73.85 6.89 73.19 7.54Q72.53 8.19 71.86 8.65L71.86 8.65Q71.79 8.82 71.73 9.00Q71.67 9.17 71.60 9.35L71.60 9.35Q71.75 9.38 71.84 9.51Q71.93 9.65 71.95 9.80L71.95 9.80Q72.04 10.43 72.16 10.93Q72.27 11.42 72.50 11.70Q72.73 11.98 73.16 11.98L73.16 11.98Q73.65 11.98 73.99 11.63Q74.33 11.27 74.72 10.61L74.72 10.61L74.93 10.75Q74.58 11.59 74.04 11.97Q73.50 12.35 73.09 12.35L73.09 12.35Q72.84 12.35 72.57 12.22Q72.30 12.10 72.06 11.89L72.06 11.89Q72.06 12.77 71.87 13.64Q71.68 14.50 71.37 15.22Q71.06 15.93 70.69 16.37Q70.31 16.80 69.90 16.80ZM70.27 16.13L70.27 16.13Q70.42 16.13 70.62 15.85Q70.81 15.57 71.00 15.11Q71.19 14.66 71.34 14.11Q71.50 13.57 71.60 13.02Q71.69 12.47 71.69 12.04L71.69 12.04Q71.69 11.61 71.58 11.25Q71.47 10.89 71.22 10.40L71.22 10.40Q70.87 11.45 70.59 12.43Q70.31 13.41 70.15 14.20Q70.00 14.98 70.00 15.46L70.00 15.46Q70.00 16.13 70.27 16.13ZM72.09 8.08L72.09 8.08Q73.00 7.24 73.66 6.39Q74.33 5.54 74.69 4.88Q75.05 4.21 75.05 3.93L75.05 3.93Q75.05 3.74 74.86 3.74L74.86 3.74Q74.49 3.74 74.03 4.33Q73.57 4.93 73.07 5.91Q72.56 6.89 72.09 8.08ZM75.96 13.50L75.96 13.50Q75.11 13.50 74.68 13.03Q74.26 12.56 74.26 11.87L74.26 11.87Q74.26 11.24 74.57 10.54Q74.89 9.84 75.41 9.23Q75.94 8.61 76.57 8.23Q77.20 7.84 77.81 7.84L77.81 7.84Q78.13 7.84 78.41 8.01Q78.68 8.18 78.68 8.69L78.68 8.69Q78.68 9.23 78.36 9.70Q78.05 10.16 77.54 10.53Q77.03 10.89 76.42 11.12Q75.81 11.35 75.21 11.41L75.21 11.41Q75.18 11.55 75.17 11.68Q75.15 11.80 75.15 11.91L75.15 11.91Q75.15 12.12 75.20 12.33Q75.25 12.54 75.38 12.72Q75.50 12.89 75.72 12.99Q75.94 13.09 76.26 13.09L76.26 13.09Q76.86 13.09 77.45 12.75Q78.04 12.40 78.54 11.84Q79.04 11.28 79.39 10.61L79.39 10.61L79.56 10.74Q79.18 11.58 78.60 12.19Q78.02 12.81 77.34 13.15Q76.66 13.50 75.96 13.50ZM75.28 11.14L75.28 11.14Q75.66 11.02 76.13 10.77Q76.61 10.53 77.05 10.19Q77.49 9.86 77.78 9.45Q78.06 9.04 78.06 8.60L78.06 8.60Q78.06 8.44 78.01 8.36Q77.95 8.27 77.77 8.27L77.77 8.27Q77.43 8.27 77.06 8.53Q76.68 8.79 76.33 9.21Q75.98 9.63 75.70 10.14Q75.42 10.64 75.28 11.14ZM80.63 13.50L80.63 13.50Q79.77 13.50 79.34 13.03Q78.92 12.56 78.92 11.87L78.92 11.87Q78.92 11.24 79.23 10.54Q79.55 9.84 80.07 9.23Q80.60 8.61 81.23 8.23Q81.86 7.84 82.47 7.84L82.47 7.84Q82.80 7.84 83.07 8.01Q83.34 8.18 83.34 8.69L83.34 8.69Q83.34 9.23 83.03 9.70Q82.71 10.16 82.20 10.53Q81.69 10.89 81.08 11.12Q80.47 11.35 79.87 11.41L79.87 11.41Q79.84 11.55 79.83 11.68Q79.81 11.80 79.81 11.91L79.81 11.91Q79.81 12.12 79.86 12.33Q79.91 12.54 80.04 12.72Q80.16 12.89 80.38 12.99Q80.60 13.09 80.92 13.09L80.92 13.09Q81.52 13.09 82.11 12.75Q82.70 12.40 83.20 11.84Q83.71 11.28 84.06 10.61L84.06 10.61L84.22 10.74Q83.85 11.58 83.26 12.19Q82.68 12.81 82.00 13.15Q81.33 13.50 80.63 13.50ZM79.94 11.14L79.94 11.14Q80.32 11.02 80.79 10.77Q81.27 10.53 81.71 10.19Q82.15 9.86 82.44 9.45Q82.73 9.04 82.73 8.60L82.73 8.60Q82.73 8.44 82.67 8.36Q82.61 8.27 82.43 8.27L82.43 8.27Q82.10 8.27 81.72 8.53Q81.34 8.79 80.99 9.21Q80.64 9.63 80.36 10.14Q80.08 10.64 79.94 11.14ZM84.94 13.30L84.94 13.30Q84.34 13.30 84.08 12.89Q83.82 12.47 83.82 11.86L83.82 11.86Q83.82 11.19 84.07 10.26Q84.32 9.34 84.73 8.32Q85.15 7.29 85.64 6.32Q86.13 5.35 86.62 4.55Q87.11 3.75 87.52 3.28Q87.93 2.80 88.17 2.80L88.17 2.80Q88.33 2.80 88.42 2.98Q88.52 3.15 88.58 3.40Q88.63 3.64 88.63 3.84L88.63 3.84Q88.63 4.21 88.44 4.82Q88.26 5.43 87.91 6.18Q87.57 6.93 87.10 7.69Q86.63 8.46 86.08 9.16Q85.53 9.86 84.91 10.36L84.91 10.36Q84.83 10.74 84.78 11.10Q84.73 11.45 84.73 11.77L84.73 11.77Q84.73 12.32 84.88 12.59Q85.04 12.85 85.34 12.85L85.34 12.85Q85.72 12.85 86.09 12.52Q86.46 12.18 86.79 11.67Q87.12 11.16 87.36 10.61L87.36 10.61L87.57 10.72Q87.01 11.91 86.35 12.61Q85.69 13.30 84.94 13.30ZM85.04 9.88L85.04 9.88Q85.53 9.39 85.99 8.76Q86.45 8.12 86.85 7.43Q87.25 6.75 87.56 6.10Q87.86 5.46 88.03 4.95Q88.20 4.44 88.20 4.16L88.20 4.16Q88.20 4.02 88.16 3.98Q88.13 3.93 88.10 3.93L88.10 3.93Q87.99 3.93 87.72 4.29Q87.44 4.65 87.08 5.25Q86.72 5.85 86.34 6.62Q85.96 7.39 85.62 8.23Q85.27 9.07 85.04 9.88ZM88.55 13.59L88.55 13.59Q87.89 13.59 87.51 13.31Q87.12 13.02 86.96 12.60Q86.80 12.18 86.80 11.76L86.80 11.76Q86.80 11.34 86.91 11.12Q87.02 10.89 87.19 10.78Q87.35 10.67 87.49 10.61Q87.64 10.56 87.70 10.50L87.70 10.50Q88.12 10.04 88.47 9.53Q88.82 9.03 89.08 8.47L89.08 8.47L89.08 8.30Q89.08 7.78 89.26 7.57Q89.43 7.35 89.63 7.35L89.63 7.35Q89.74 7.35 89.80 7.41Q89.85 7.46 89.85 7.53L89.85 7.53Q89.85 7.60 89.81 7.76Q89.77 7.91 89.77 8.15L89.77 8.15Q89.77 8.61 89.95 9.15Q90.13 9.69 90.31 10.28Q90.50 10.88 90.50 11.52L90.50 11.52Q90.50 11.70 90.47 11.88Q90.45 12.05 90.41 12.21L90.41 12.21Q90.90 12.12 91.34 11.77Q91.77 11.41 92.18 10.63L92.18 10.63L92.30 10.77Q92.04 11.54 91.50 11.94Q90.97 12.33 90.34 12.43L90.34 12.43Q90.12 13.03 89.64 13.31Q89.15 13.59 88.55 13.59ZM88.58 13.10L88.58 13.10Q88.75 13.10 89.03 12.99Q89.31 12.88 89.46 12.42L89.46 12.42Q88.87 12.31 88.42 11.96Q87.96 11.61 87.74 11.26L87.74 11.26Q87.43 11.27 87.43 11.75L87.43 11.75Q87.43 12.25 87.73 12.68Q88.03 13.10 88.58 13.10ZM89.53 12.19L89.53 12.19Q89.56 12.05 89.57 11.90Q89.59 11.75 89.59 11.54L89.59 11.54Q89.59 10.88 89.42 10.23Q89.26 9.58 89.15 9.00L89.15 9.00Q88.83 9.53 88.47 10.02Q88.12 10.50 87.79 10.82L87.79 10.82Q88.00 11.27 88.44 11.66Q88.89 12.05 89.53 12.19ZM97.97 13.24L97.97 13.24Q97.50 13.24 97.22 12.99Q96.95 12.74 96.95 12.33L96.95 12.33Q96.95 11.91 97.15 11.45Q97.34 10.99 97.53 10.54Q97.72 10.08 97.72 9.72L97.72 9.72Q97.72 9.27 97.46 9.05Q97.20 8.83 96.94 8.65L96.94 8.65Q96.61 9.48 96.26 10.22Q95.91 10.96 95.69 11.34L95.69 11.34L95.56 11.10Q95.76 10.74 96.08 10.04Q96.39 9.34 96.70 8.44L96.70 8.44Q96.56 8.30 96.56 8.11L96.56 8.11Q96.56 7.69 96.80 7.42Q97.03 7.15 97.15 7.15L97.15 7.15Q97.30 7.15 97.32 7.29Q97.34 7.42 97.34 7.49L97.34 7.49Q97.34 7.56 97.27 7.76Q97.19 7.97 97.19 8.01L97.19 8.01Q97.19 8.20 97.41 8.37Q97.62 8.53 97.90 8.73Q98.18 8.93 98.40 9.22Q98.62 9.51 98.62 9.95L98.62 9.95Q98.62 10.37 98.44 10.81Q98.27 11.24 98.09 11.63Q97.92 12.03 97.92 12.32L97.92 12.32Q97.92 12.57 98.04 12.66Q98.17 12.74 98.34 12.74L98.34 12.74Q98.67 12.74 99.03 12.53Q99.39 12.32 99.72 12.00Q100.06 11.68 100.32 11.32Q100.59 10.96 100.72 10.65L100.72 10.65L100.90 10.79Q100.63 11.38 100.17 11.95Q99.71 12.52 99.14 12.88Q98.57 13.24 97.97 13.24ZM101.43 13.24L101.43 13.24Q100.88 13.24 100.62 12.90Q100.35 12.56 100.35 12.07L100.35 12.07Q100.35 11.75 100.47 11.26Q100.59 10.77 100.79 10.23Q100.98 9.69 101.24 9.21Q101.50 8.74 101.79 8.44Q102.09 8.13 102.37 8.13L102.37 8.13Q102.49 8.13 102.58 8.21Q102.68 8.29 102.68 8.44L102.68 8.44Q102.68 8.61 102.46 8.99Q102.24 9.37 101.95 9.86Q101.65 10.35 101.44 10.89Q101.22 11.42 101.22 11.91L101.22 11.91Q101.22 12.42 101.39 12.59Q101.56 12.75 101.91 12.75L101.91 12.75Q102.38 12.75 102.92 12.28Q103.46 11.80 104.06 10.61L104.06 10.61L104.19 10.75Q103.78 11.96 103.02 12.60Q102.26 13.24 101.43 13.24ZM103.11 6.83L103.11 6.83Q102.89 6.83 102.71 6.72Q102.54 6.61 102.54 6.37L102.54 6.37Q102.54 6.08 102.88 5.86Q103.22 5.64 103.56 5.64L103.56 5.64Q103.77 5.64 103.89 5.74Q104.02 5.84 104.02 6.08L104.02 6.08Q104.02 6.34 103.73 6.59Q103.45 6.83 103.11 6.83ZM104.33 16.80L104.33 16.80Q104.02 16.80 103.77 16.61Q103.52 16.42 103.52 15.99L103.52 15.99Q103.52 15.57 103.77 15.21Q104.03 14.85 104.44 14.55Q104.85 14.25 105.33 14Q105.81 13.75 106.25 13.52L106.25 13.52Q106.44 13.03 106.62 12.47Q106.79 11.90 106.96 11.21L106.96 11.21Q106.43 11.98 105.85 12.50Q105.27 13.01 104.68 13.01L104.68 13.01Q104.17 13.01 103.90 12.63Q103.63 12.25 103.63 11.65L103.63 11.65Q103.63 10.92 103.98 10.26Q104.34 9.60 104.92 9.10Q105.49 8.60 106.13 8.31Q106.78 8.02 107.34 8.02L107.34 8.02Q107.74 8.02 107.92 8.16Q108.09 8.29 108.09 8.47L108.09 8.47Q108.09 8.60 108.02 8.67Q107.95 8.74 107.93 8.75L107.93 8.75Q107.86 8.64 107.72 8.59Q107.58 8.54 107.37 8.54L107.37 8.54Q106.82 8.54 106.31 8.86Q105.80 9.18 105.41 9.69Q105.01 10.19 104.78 10.73Q104.55 11.27 104.55 11.72L104.55 11.72Q104.55 12.05 104.68 12.23Q104.82 12.40 105.04 12.40L105.04 12.40Q105.45 12.40 106.01 11.87Q106.58 11.33 107.11 10.56L107.11 10.56Q107.16 10.36 107.19 10.21Q107.23 10.05 107.28 9.81L107.28 9.81Q107.32 9.62 107.48 9.36Q107.65 9.10 108.00 9.10L108.00 9.10Q108.07 9.10 108.14 9.11Q108.21 9.11 108.29 9.14L108.29 9.14Q108.29 9.37 108.16 9.96Q108.02 10.56 107.78 11.35Q107.53 12.14 107.21 12.98L107.21 12.98Q107.67 12.75 108.11 12.40Q108.56 12.05 108.92 11.60Q109.28 11.14 109.49 10.61L109.49 10.61L109.68 10.75Q109.47 11.38 109.00 11.90Q108.54 12.42 108.02 12.80Q107.49 13.17 107.06 13.38L107.06 13.38Q106.67 14.32 106.23 15.10Q105.80 15.88 105.33 16.34Q104.86 16.80 104.33 16.80ZM104.29 16.35L104.29 16.35Q104.57 16.35 105.05 15.80Q105.53 15.25 106.09 13.90L106.09 13.90Q105.53 14.18 105.05 14.48Q104.57 14.78 104.26 15.12Q103.95 15.46 103.95 15.86L103.95 15.86Q103.95 16.09 104.05 16.22Q104.15 16.35 104.29 16.35ZM109.90 13.41L109.90 13.41Q109.63 13.41 109.48 12.96Q109.33 12.52 109.33 11.96L109.33 11.96Q109.33 11.28 109.55 10.36Q109.77 9.44 110.14 8.41Q110.50 7.39 110.96 6.41Q111.41 5.43 111.89 4.63Q112.36 3.84 112.78 3.36Q113.20 2.88 113.51 2.88L113.51 2.88Q113.76 2.88 113.87 3.19Q113.97 3.49 113.97 3.77L113.97 3.77Q113.97 4.16 113.80 4.72Q113.62 5.28 113.32 5.92Q113.01 6.55 112.60 7.17Q112.20 7.78 111.72 8.30Q111.24 8.81 110.75 9.10L110.75 9.10Q110.59 9.51 110.47 10.01Q110.35 10.51 110.29 11.00Q110.24 11.48 110.24 11.86L110.24 11.86Q110.24 12.01 110.24 12.12Q110.25 12.24 110.26 12.33L110.26 12.33Q110.46 11.76 110.69 11.22Q110.92 10.68 111.19 10.23Q111.45 9.77 111.75 9.43Q112.06 9.09 112.39 8.90Q112.73 8.71 113.11 8.71L113.11 8.71Q113.50 8.71 113.73 8.90Q113.96 9.09 114.06 9.37Q114.17 9.66 114.17 9.97L114.17 9.97Q114.17 10.40 114.02 10.81Q113.88 11.21 113.72 11.59Q113.57 11.97 113.57 12.32L113.57 12.32Q113.57 12.60 113.69 12.73Q113.81 12.85 113.99 12.85L113.99 12.85Q114.31 12.85 114.71 12.54Q115.11 12.24 115.50 11.73Q115.89 11.21 116.17 10.61L116.17 10.61L116.35 10.78Q116.06 11.47 115.64 12.02Q115.22 12.57 114.72 12.89Q114.21 13.22 113.67 13.22L113.67 13.22Q113.19 13.22 112.94 12.96Q112.70 12.71 112.70 12.33L112.70 12.33Q112.70 12.04 112.81 11.68Q112.92 11.31 113.03 10.93Q113.13 10.56 113.13 10.22L113.13 10.22Q113.13 9.86 112.98 9.70Q112.83 9.55 112.60 9.55L112.60 9.55Q112.25 9.55 111.97 9.83Q111.69 10.11 111.46 10.55Q111.23 10.99 111.03 11.48Q110.82 11.97 110.64 12.41Q110.46 12.85 110.28 13.13Q110.10 13.41 109.90 13.41ZM110.94 8.55L110.94 8.55Q111.33 8.25 111.70 7.77Q112.07 7.29 112.39 6.76Q112.71 6.22 112.97 5.70Q113.22 5.18 113.36 4.76Q113.50 4.34 113.50 4.13L113.50 4.13Q113.50 4.06 113.48 4.04Q113.47 4.02 113.44 4.02L113.44 4.02Q113.34 4.02 113.04 4.40Q112.74 4.79 112.35 5.43Q111.96 6.08 111.58 6.89Q111.20 7.70 110.94 8.55ZM117.10 13.52L117.10 13.52Q116.49 13.52 116.17 13.17Q115.85 12.82 115.85 12.14L115.85 12.14Q115.85 11.52 116.08 10.62Q116.31 9.72 116.66 8.76L116.66 8.76Q116.52 8.74 116.40 8.71Q116.27 8.69 116.16 8.65L116.16 8.65L116.16 8.40Q116.27 8.41 116.42 8.43Q116.58 8.44 116.77 8.46L116.77 8.46Q117.07 7.70 117.40 6.99Q117.74 6.29 118.07 5.73Q118.40 5.18 118.70 4.85Q119.00 4.52 119.21 4.52L119.21 4.52Q119.32 4.52 119.41 4.60Q119.50 4.68 119.50 4.83L119.50 4.83Q119.50 5.07 119.21 5.61Q118.92 6.15 118.48 6.89Q118.05 7.63 117.64 8.50L117.64 8.50Q117.77 8.50 117.90 8.50Q118.03 8.50 118.16 8.50L118.16 8.50Q118.62 8.50 119.13 8.48Q119.64 8.47 120.16 8.41L120.16 8.41L120.16 8.67Q119.39 8.75 118.78 8.79Q118.17 8.83 117.70 8.83L117.70 8.83Q117.64 8.83 117.59 8.83Q117.54 8.83 117.49 8.83L117.49 8.83Q117.17 9.58 116.94 10.36Q116.72 11.14 116.72 11.89L116.72 11.89Q116.72 12.49 116.90 12.75Q117.08 13.01 117.50 13.01L117.50 13.01Q118.23 13.01 118.93 12.36Q119.63 11.72 120.16 10.61L120.16 10.61L120.34 10.75Q120.01 11.54 119.50 12.17Q118.99 12.80 118.37 13.16Q117.75 13.52 117.10 13.52Z" transform="translate(0, 0)"></path></g></svg> <g transform="rotate(0 388.48500061035156 363.60899992370605)"><svg y="339.529" viewBox="-4.880000114440918 18.84000015258789 162.97000122070312 48.15999984741211" x="307" height="48.15999984741211" width="162.97000122070312" style="overflow: visible;"><g fill="#F4F1DE" fill-opacity="1" style=""><path d="M26.95 61.39L26.95 61.39Q26.85 61.95 26.51 62.20Q26.16 62.45 25.86 62.91L25.86 62.91L25.73 62.91Q25.40 62.91 25.09 62.98Q24.78 63.04 24.45 63.14L24.45 63.14Q24.28 63.08 24.05 63.04Q23.82 63.01 23.75 62.81L23.75 62.81Q23.49 62.94 23.03 62.94L23.03 62.94Q22.27 62.94 21.59 62.52Q20.92 62.09 20.19 61.86L20.19 61.86Q19.99 61.46 19.71 61.15Q19.43 60.83 19.15 60.54Q18.87 60.24 18.61 59.91Q18.34 59.58 18.18 59.12L18.18 59.12Q18.11 58.92 18.01 58.89Q17.91 58.85 17.72 58.89L17.72 58.89Q17.75 58.52 17.63 58.26Q17.52 58.00 17.12 57.93L17.12 57.93Q17.12 57.50 16.99 57.20Q16.86 56.91 16.68 56.69Q16.49 56.48 16.28 56.25Q16.07 56.02 15.93 55.69L15.93 55.69Q15.64 55.62 15.36 55.60Q15.08 55.59 14.75 55.59L14.75 55.59Q13.16 55.59 11.68 56.18L11.68 56.18Q11.51 56.25 11.33 56.35Q11.15 56.45 10.99 56.51L10.99 56.51Q10.92 56.51 10.87 56.53Q10.82 56.54 10.75 56.54L10.75 56.54Q10.52 56.54 10.33 56.46Q10.13 56.38 9.90 56.38L9.90 56.38Q9.80 56.38 9.68 56.43Q9.57 56.48 9.47 56.51L9.47 56.51Q8.97 56.68 8.54 56.71L8.54 56.71Q7.19 56.97 5.69 57.11Q4.19 57.24 2.94 57.80L2.94 57.80Q2.67 57.93 2.61 58.21Q2.54 58.49 2.57 58.75L2.57 58.75Q2.21 59.02 2.03 59.45Q1.85 59.88 1.70 60.35Q1.55 60.83 1.39 61.29Q1.22 61.76 0.92 62.09L0.92 62.09Q1.02 62.28 1.02 62.52L1.02 62.52Q1.02 63.01 0.69 63.51Q0.36 64.00 0.20 64.46L0.20 64.46Q0.03 64.92-0.07 65.37Q-0.16 65.81-0.36 66.18Q-0.56 66.54-0.91 66.77Q-1.25 67.00-1.88 67.00L-1.88 67.00Q-2.47 67.00-2.90 66.77Q-3.33 66.54-3.60 66.18Q-3.86 65.81-4.02 65.32Q-4.19 64.82-4.29 64.33L-4.29 64.33Q-3.93 63.60-3.60 63.08Q-3.27 62.55-3.10 61.72L-3.10 61.72Q-2.51 61.29-2.23 60.68Q-1.95 60.07-1.91 59.35L-1.91 59.35Q-1.55 59.12-1.40 58.74Q-1.25 58.36-1.22 57.93L-1.22 57.93Q-2.01 57.86-2.89 57.80Q-3.76 57.73-4.52 57.47L-4.52 57.47Q-4.52 57.40-4.50 57.34Q-4.49 57.27-4.49 57.20L-4.49 57.20Q-4.49 56.78-4.68 56.43Q-4.88 56.08-4.88 55.69L-4.88 55.69L-4.88 55.42Q-4.62 55.16-4.40 54.88Q-4.19 54.60-3.96 54.37Q-3.73 54.14-3.43 53.99Q-3.13 53.84-2.67 53.84L-2.67 53.84Q-2.05 53.84-1.45 53.92Q-0.86 54.00-0.23 54.00L-0.23 54.00Q0.20 54.00 0.66 53.91L0.66 53.91Q1.39 52.42 1.95 50.89Q2.51 49.35 2.80 47.77L2.80 47.77Q3.04 47.44 3.23 46.99Q3.43 46.55 3.55 46.05Q3.66 45.56 3.71 45.08Q3.76 44.60 3.76 44.21L3.76 44.21Q4.12 43.78 4.27 43.15Q4.42 42.52 4.52 41.85Q4.62 41.17 4.73 40.51Q4.85 39.85 5.18 39.36L5.18 39.36L5.18 39.06Q5.21 38.56 5.08 38.17L5.08 38.17Q5.25 38.10 5.28 37.87Q5.31 37.64 5.41 37.48L5.41 37.48Q5.44 35.96 5.74 34.49Q6.04 33.02 6.24 31.54L6.24 31.54L6.24 31.44Q6.24 31.27 6.12 31.26Q6.00 31.24 6.00 31.08L6.00 31.08Q6.00 30.78 6.09 30.28Q6.17 29.79 6.20 29.46L6.20 29.46Q6.40 27.68 6.40 25.93L6.40 25.93Q6.40 24.45 6.30 22.99Q6.20 21.54 6.10 20.06L6.10 20.06L6.37 19.66Q6.50 19.46 6.60 19.27L6.60 19.27Q6.93 19.13 7.14 18.99Q7.36 18.84 7.72 18.84L7.72 18.84Q7.82 18.84 7.88 18.85Q7.95 18.87 8.02 18.87L8.02 18.87Q8.21 19.00 8.33 19.23Q8.45 19.46 8.56 19.66Q8.68 19.86 8.87 19.99Q9.07 20.12 9.44 20.06L9.44 20.06Q9.60 20.98 10.36 21.01L10.36 21.01Q10.52 21.48 10.77 21.94Q11.02 22.40 11.45 22.66L11.45 22.66Q11.41 22.80 11.41 23.03L11.41 23.03Q11.41 23.49 11.63 23.92Q11.84 24.35 12.17 24.71L12.17 24.71L12.17 24.78Q12.17 25.14 11.91 25.27L11.91 25.27Q12.21 25.60 12.34 26.06Q12.47 26.52 12.57 27.00Q12.67 27.48 12.82 27.91Q12.96 28.34 13.33 28.57L13.33 28.57L13.33 28.67Q13.33 28.83 13.21 28.87Q13.10 28.90 13.10 29.06L13.10 29.06Q13.69 30.15 13.92 31.44Q14.15 32.73 14.52 33.91L14.52 33.91Q14.65 34.05 14.83 34.08Q15.01 34.11 15.11 34.24L15.11 34.24Q14.91 34.38 14.91 34.71Q14.91 35.04 14.75 35.20L14.75 35.20Q15.01 35.43 14.99 35.88Q14.98 36.32 15.24 36.52L15.24 36.52L15.24 36.65Q15.24 36.78 15.18 36.87Q15.11 36.95 15.11 37.08L15.11 37.08L15.11 37.21Q15.37 38.37 15.52 39.52Q15.67 40.68 15.84 41.83Q16.00 42.99 16.20 44.12Q16.40 45.26 16.76 46.35L16.76 46.35Q16.79 46.38 16.79 46.45L16.79 46.45Q16.79 46.61 16.66 46.63Q16.53 46.65 16.53 46.81L16.53 46.81Q16.53 46.98 16.64 47.19Q16.76 47.41 16.89 47.54L16.89 47.54Q16.86 47.67 16.86 47.93L16.86 47.93Q16.86 48.43 17.04 48.89Q17.22 49.35 17.44 49.80Q17.65 50.24 17.81 50.74Q17.98 51.23 17.95 51.79L17.95 51.79Q18.14 52.09 18.46 52.29Q18.77 52.49 19.10 52.65Q19.43 52.82 19.71 53.05Q19.99 53.28 20.09 53.67L20.09 53.67Q19.83 53.91 19.73 54.25Q19.63 54.60 19.36 54.86L19.36 54.86Q19.60 55.42 19.91 55.90Q20.22 56.38 20.55 56.84L20.55 56.84L21.25 57.76Q21.61 58.23 21.87 58.75L21.87 58.75Q22.24 58.75 22.40 58.95Q22.56 59.15 22.93 59.12L22.93 59.12Q23.06 59.38 23.03 59.71L23.03 59.71Q23.69 59.48 24.35 59.48L24.35 59.48Q24.71 59.48 25.02 59.51Q25.34 59.55 25.67 59.55L25.67 59.55Q26.06 59.55 26.36 59.45L26.36 59.45Q26.49 59.65 26.56 59.89Q26.62 60.14 26.66 60.40L26.66 60.40L26.75 60.93Q26.82 61.20 26.95 61.39ZM14.52 52.26L14.52 52.26Q14.05 49.98 13.58 47.72Q13.10 45.46 12.73 43.15L12.73 43.15Q12.54 41.93 12.44 40.71Q12.34 39.49 12.19 38.28Q12.04 37.08 11.79 35.89Q11.55 34.71 11.08 33.55L11.08 33.55L11.08 33.48Q11.08 33.39 11.15 33.32Q11.22 33.25 11.22 33.09L11.22 33.09L11.22 32.96Q10.79 32.66 10.62 32.12Q10.46 31.57 10.34 30.96Q10.23 30.35 10.05 29.77Q9.86 29.20 9.44 28.80L9.44 28.80Q9.27 30.71 9.09 32.61Q8.91 34.51 8.84 36.42L8.84 36.42Q8.51 36.62 8.41 37.08Q8.31 37.54 8.31 37.91L8.31 37.91Q8.31 38.17 8.35 38.45Q8.38 38.73 8.48 39.03L8.48 39.03Q7.88 40.51 7.62 42.08Q7.36 43.65 7.03 45.20L7.03 45.20Q6.99 45.29 6.91 45.64Q6.83 45.99 6.73 46.35Q6.63 46.71 6.56 46.99Q6.50 47.27 6.50 47.31L6.50 47.31Q6.47 47.54 6.48 47.77Q6.50 48.00 6.50 48.23L6.50 48.23L6.00 48.73Q5.87 49.98 5.53 51.15Q5.18 52.32 4.82 53.54L4.82 53.54Q5.05 53.58 5.26 53.59Q5.48 53.61 5.71 53.61L5.71 53.61Q6.76 53.61 7.84 53.46Q8.91 53.31 9.96 53.18L9.96 53.18Q10.33 53.11 10.72 53.06Q11.12 53.01 11.48 53.01L11.48 53.01Q11.65 52.98 11.88 53.00Q12.11 53.01 12.27 52.98L12.27 52.98Q12.54 52.92 12.62 52.77Q12.70 52.62 12.96 52.59L12.96 52.59Q13.16 52.68 13.43 52.68L13.43 52.68Q13.72 52.68 13.99 52.55Q14.25 52.42 14.52 52.26ZM39.23 30.05L39.23 30.05Q39.23 30.61 39.18 31.13Q39.13 31.64 38.97 32.20L38.97 32.20Q38.67 32.43 38.44 32.76L38.44 32.76L37.98 33.39Q37.75 33.68 37.49 33.96Q37.22 34.24 36.83 34.41L36.83 34.41Q36.50 35.86 36.02 37.20Q35.54 38.53 35.31 39.98L35.31 39.98Q34.91 40.71 34.68 41.57Q34.45 42.42 34.20 43.30Q33.96 44.17 33.66 44.96Q33.36 45.76 32.83 46.38L32.83 46.38Q32.57 47.18 32.31 48.08Q32.04 48.99 31.42 49.58L31.42 49.58Q31.45 49.65 31.45 49.78L31.45 49.78Q31.45 50.18 31.25 50.52Q31.05 50.87 31.05 51.23L31.05 51.23Q30.52 51.63 30.05 52.16Q29.57 52.68 29.07 53.21Q28.58 53.74 28.02 54.14Q27.46 54.53 26.80 54.66L26.80 54.66Q26.34 54.33 25.94 53.92Q25.54 53.51 25.02 53.25L25.02 53.25Q24.75 51.76 24.70 50.33Q24.65 48.89 24.45 47.47L24.45 47.47Q24.32 46.65 24.04 45.89Q23.76 45.13 23.76 44.34L23.76 44.34Q23.76 44.17 23.78 43.99Q23.79 43.81 23.83 43.65L23.83 43.65Q23.50 43.28 23.40 42.74Q23.30 42.19 23.23 41.62Q23.17 41.04 23.05 40.48Q22.94 39.92 22.64 39.52L22.64 39.52Q22.77 39.39 22.77 39.16L22.77 39.16Q22.77 38.99 22.72 38.83Q22.67 38.66 22.67 38.50L22.67 38.50Q22.67 38.37 22.77 38.20L22.77 38.20Q22.51 37.87 22.43 37.59Q22.34 37.31 22.31 37.03Q22.28 36.75 22.26 36.45Q22.24 36.16 22.18 35.83L22.18 35.83Q22.11 35.60 21.96 35.48Q21.82 35.36 21.82 35.30L21.82 35.30Q21.82 35.13 21.95 35.04L21.95 35.04Q21.49 34.38 21.19 33.65Q20.89 32.92 20.53 32.20L20.53 32.20Q20.56 31.84 20.79 31.64Q21.02 31.44 21.12 31.11L21.12 31.11L22.18 31.11Q23.63 33.95 24.41 37.00Q25.18 40.05 25.77 43.15L25.77 43.15Q25.94 44.04 26.09 44.93Q26.24 45.82 26.43 46.75L26.43 46.75Q26.50 46.94 26.63 47.18Q26.76 47.41 26.76 47.64L26.76 47.64Q26.76 47.84 26.66 48.03L26.66 48.03Q26.86 48.16 26.98 48.40Q27.09 48.63 27.18 48.87Q27.26 49.12 27.32 49.37Q27.39 49.62 27.52 49.81L27.52 49.81Q27.92 49.78 28.22 49.45Q28.51 49.12 28.76 48.68Q29.01 48.23 29.22 47.79Q29.44 47.34 29.73 47.08L29.73 47.08Q29.77 46.71 29.88 46.37Q30.00 46.02 30.00 45.66L30.00 45.66Q30.33 45.10 30.59 44.60Q30.85 44.11 30.92 43.41L30.92 43.41Q31.09 43.28 31.12 43.20Q31.15 43.12 31.42 43.18L31.42 43.18Q31.42 42.29 31.70 41.45Q31.98 40.61 32.47 39.85L32.47 39.85Q32.54 39.09 32.78 38.32Q33.03 37.54 33.36 36.78L33.36 36.78Q33.46 36.55 33.63 36.24Q33.79 35.93 33.79 35.66L33.79 35.66Q33.79 35.53 33.74 35.41Q33.69 35.30 33.69 35.17L33.69 35.17Q33.69 34.90 33.89 34.71Q34.09 34.51 34.25 34.31L34.25 34.31Q34.25 33.55 34.42 32.79Q34.58 32.03 35.08 31.47L35.08 31.47Q35.24 30.35 35.51 29.28Q35.77 28.21 36.26 27.22L36.26 27.22L37.45 27.22Q37.45 26.59 38.01 26.59L38.01 26.59Q38.34 26.59 38.74 26.75L38.74 26.75Q39.00 27.48 39.12 28.39Q39.23 29.29 39.23 30.05ZM61.68 51.13L61.68 51.13Q61.58 51.60 61.26 51.88Q60.95 52.16 60.52 52.32Q60.09 52.49 59.65 52.54Q59.20 52.59 58.84 52.59L58.84 52.59Q58.67 52.59 58.53 52.57Q58.38 52.55 58.21 52.55L58.21 52.55Q58.05 52.55 58.05 52.72Q58.05 52.88 57.88 52.95L57.88 52.95Q57.72 52.88 57.55 52.85Q57.39 52.82 57.22 52.82L57.22 52.82Q56.99 52.82 56.78 52.85Q56.56 52.88 56.36 52.88L56.36 52.88Q56.10 52.88 55.99 52.82Q55.87 52.75 55.79 52.67Q55.71 52.59 55.62 52.49Q55.54 52.39 55.38 52.32L55.38 52.32Q55.14 52.22 55.00 52.29Q54.85 52.35 54.55 52.09L54.55 52.09Q54.15 51.76 53.87 51.28Q53.59 50.80 53.33 50.28Q53.07 49.75 52.77 49.22Q52.47 48.69 52.08 48.30L52.08 48.30L51.81 48.30Q51.22 48.30 50.99 48.79L50.99 48.79Q50.82 48.69 50.66 48.54Q50.49 48.40 50.29 48.30L50.29 48.30Q49.54 48.53 48.71 48.69Q47.89 48.86 47.06 48.86L47.06 48.86L46.60 48.86Q46.40 48.86 46.17 48.79L46.17 48.79Q45.84 48.92 45.58 49.11Q45.31 49.29 44.98 49.29L44.98 49.29Q44.79 49.29 44.52 49.15L44.52 49.15Q44.32 49.15 44.34 49.32Q44.36 49.48 44.13 49.48L44.13 49.48L43.83 49.48Q43.37 49.48 42.92 49.52Q42.48 49.55 42.01 49.55L42.01 49.55Q41.39 49.55 40.73 49.39L40.73 49.39Q40.56 49.48 40.36 49.48L40.36 49.48Q40.23 49.55 40.17 49.70Q40.10 49.85 40.03 49.96Q39.97 50.08 39.85 50.16Q39.74 50.24 39.54 50.21L39.54 50.21Q39.47 50.61 39.21 50.84Q38.95 51.07 38.95 51.53L38.95 51.53Q38.58 51.73 38.35 52.02Q38.12 52.32 37.89 52.65Q37.66 52.98 37.41 53.28Q37.16 53.58 36.80 53.74L36.80 53.74Q36.64 53.94 36.70 54.37L36.70 54.37Q36.34 54.66 35.81 54.89Q35.28 55.13 34.82 55.13L34.82 55.13Q33.87 55.13 33.50 54.10L33.50 54.10Q33.50 53.77 33.55 53.39Q33.60 53.01 33.70 52.67Q33.80 52.32 34.00 52.04Q34.20 51.76 34.56 51.63L34.56 51.63Q34.56 51.33 34.36 51.22Q34.16 51.10 34.20 50.80L34.20 50.80Q35.09 50.38 35.75 49.68Q36.41 48.99 36.95 48.21Q37.49 47.44 38.06 46.65Q38.62 45.86 39.31 45.23L39.31 45.23L39.31 44.54Q40.30 43.48 40.60 42.16L40.60 42.16Q40.96 42.09 41.07 41.83Q41.19 41.57 41.19 41.20L41.19 41.20Q41.35 41.20 41.40 41.06Q41.45 40.91 41.68 40.97L41.68 40.97Q41.98 40.18 42.34 39.52Q42.71 38.86 43.07 38.19Q43.43 37.51 43.71 36.78Q43.99 36.06 44.13 35.17L44.13 35.17Q44.59 35.13 44.64 34.72Q44.69 34.31 44.75 33.98L44.75 33.98Q45.25 33.52 45.49 32.89Q45.74 32.26 45.94 31.59Q46.14 30.91 46.39 30.24Q46.63 29.56 47.09 29.03L47.09 29.03L47.09 28.93Q47.09 28.77 46.96 28.72Q46.83 28.67 46.83 28.50L46.83 28.50Q46.86 28.47 46.86 28.44L46.86 28.44Q47.26 28.27 47.46 27.89Q47.66 27.51 48.05 27.35L48.05 27.35Q48.74 27.91 49.27 28.02Q49.80 28.14 50.66 28.21L50.66 28.21Q51.09 28.67 51.14 29.31Q51.19 29.95 51.35 30.58L51.35 30.58Q51.61 31.64 51.93 32.64Q52.24 33.65 52.41 34.71L52.41 34.71Q52.51 35.33 52.77 35.89Q53.03 36.45 53.13 37.05L53.13 37.05Q53.20 37.51 53.13 38.09Q53.07 38.66 53.26 39.09L53.26 39.09L53.49 39.62Q53.66 39.98 53.78 40.38Q53.89 40.78 53.99 41.17L53.99 41.17Q54.25 42.16 54.47 43.30Q54.68 44.44 55.14 45.36L55.14 45.36Q55.31 45.69 55.66 45.82Q56.00 45.95 56.43 46.00Q56.86 46.05 57.27 46.04Q57.68 46.02 57.98 46.02L57.98 46.02L58.31 46.02Q58.51 46.02 58.71 46.09L58.71 46.09Q58.84 46.35 58.84 46.55L58.84 46.55Q58.84 46.94 58.58 47.18Q58.31 47.41 58.31 47.70L58.31 47.70Q58.31 47.87 58.44 48.07L58.44 48.07Q58.31 48.03 58.05 48.03L58.05 48.03Q57.29 48.03 56.56 48.30L56.56 48.30Q56.83 48.86 57.27 49.24Q57.72 49.62 58.21 49.95L58.21 49.95Q58.54 49.68 58.91 49.68L58.91 49.68Q59.30 49.68 59.65 49.86Q59.99 50.05 60.39 50.05L60.39 50.05Q60.69 50.05 60.82 49.95L60.82 49.95Q61.08 50.24 61.25 50.56Q61.41 50.87 61.68 51.13ZM51.35 45.86L51.35 45.86Q51.28 45.29 51.14 45.05Q50.99 44.80 50.89 44.44L50.89 44.44Q50.76 43.98 50.71 43.45Q50.66 42.92 50.56 42.42L50.56 42.42Q50.33 41.30 50.05 40.18Q49.77 39.06 49.34 38.00L49.34 38.00Q49.47 37.81 49.47 37.64L49.47 37.64L49.47 37.54Q49.17 37.21 49.04 36.73Q48.91 36.26 48.79 35.78Q48.68 35.30 48.50 34.89Q48.32 34.47 47.92 34.21L47.92 34.21Q47.82 34.41 47.82 34.67L47.82 34.67Q47.82 34.90 47.87 35.10Q47.92 35.30 47.92 35.53L47.92 35.53Q47.59 35.69 47.44 36.04Q47.29 36.39 46.96 36.59L46.96 36.59Q46.70 37.64 46.20 38.58Q45.71 39.52 45.16 40.45Q44.62 41.37 44.13 42.31Q43.63 43.25 43.33 44.27L43.33 44.27Q42.91 44.57 42.76 45.03Q42.61 45.49 42.61 45.95L42.61 45.95Q42.91 46.12 43.28 46.14Q43.66 46.15 44.03 46.15Q44.39 46.15 44.72 46.22Q45.05 46.28 45.31 46.55L45.31 46.55Q45.74 46.42 46.25 46.37Q46.76 46.32 47.09 46.09L47.09 46.09Q47.75 46.32 48.51 46.32L48.51 46.32Q48.91 46.32 49.29 46.25Q49.67 46.19 50.03 46.09L50.03 46.09Q50.33 46.15 50.49 46.30Q50.66 46.45 50.99 46.42L50.99 46.42Q51.15 46.28 51.19 46.14Q51.22 45.99 51.35 45.86ZM67.52 49.02L67.52 49.02Q67.36 49.29 67.13 49.50Q66.90 49.72 66.70 49.95L66.70 49.95Q66.47 50.05 66.19 50.05Q65.91 50.05 65.66 50.03Q65.41 50.01 65.20 50.03Q64.98 50.05 64.85 50.18L64.85 50.18Q64.59 50.11 64.46 49.93Q64.32 49.75 63.99 49.72L63.99 49.72Q63.86 49.68 63.73 49.72L63.73 49.72Q63.24 49.15 62.82 48.53Q62.41 47.90 62.05 47.34L62.05 47.34Q62.02 46.12 61.85 44.87L61.85 44.87Q61.82 44.57 61.75 44.27Q61.69 43.98 61.65 43.71L61.65 43.71Q61.65 43.38 61.70 43.07Q61.75 42.75 61.78 42.49L61.78 42.49Q61.92 41.53 62.08 40.61Q62.25 39.69 62.38 38.73L62.38 38.73Q62.51 37.87 62.51 36.93Q62.51 35.99 62.21 35.17L62.21 35.17L62.18 35.00Q62.25 34.74 62.33 34.56Q62.41 34.38 62.44 34.14L62.44 34.14Q62.51 33.78 62.28 33.62L62.28 33.62Q62.38 33.35 62.61 33.27Q62.84 33.19 62.87 32.89L62.87 32.89Q62.91 32.76 62.87 32.63L62.87 32.63Q63.14 32.53 63.42 32.45Q63.70 32.36 63.96 32.43L63.96 32.43Q64.39 32.49 64.72 32.71Q65.05 32.92 65.35 33.19L65.35 33.19Q65.88 34.77 65.78 36.54Q65.68 38.30 65.45 40.08Q65.22 41.86 65.15 43.56Q65.08 45.26 65.68 46.71L65.68 46.71L65.74 46.75Q65.91 46.78 66.01 46.63Q66.11 46.48 66.27 46.52L66.27 46.52Q66.40 46.58 66.44 46.58L66.44 46.58Q66.57 47.24 66.86 47.84Q67.16 48.43 67.52 49.02ZM87.62 45.06L87.62 45.06Q87.62 45.43 87.36 45.61Q87.10 45.79 87.10 46.09L87.10 46.09Q87.10 46.22 87.23 46.42L87.23 46.42Q86.77 46.42 86.60 46.71Q86.44 47.01 86.27 47.37L86.27 47.37L85.84 47.37Q85.68 47.37 85.58 47.44Q85.48 47.51 85.40 47.62Q85.32 47.74 85.18 47.97L85.18 47.97Q84.56 48.10 83.98 48.38Q83.40 48.66 82.86 48.97Q82.31 49.29 81.75 49.60Q81.19 49.91 80.60 50.11L80.60 50.11Q80.30 50.61 79.74 50.90L79.74 50.90L79.64 50.90Q79.48 50.94 79.36 50.85Q79.25 50.77 79.08 50.77L79.08 50.77Q78.98 50.77 78.95 50.80L78.95 50.80Q77.96 51.46 76.74 51.46L76.74 51.46Q76.41 51.46 76.11 51.41Q75.81 51.36 75.48 51.36L75.48 51.36Q75.39 51.36 75.35 51.43L75.35 51.43L75.29 51.56Q75.25 51.63 75.20 51.69Q75.15 51.76 74.96 51.76L74.96 51.76Q74.59 51.76 74.23 51.66Q73.87 51.56 73.47 51.63L73.47 51.63Q72.71 51.20 72.28 50.80Q71.86 50.41 71.49 49.62L71.49 49.62Q71.33 49.25 71.05 48.92Q70.77 48.59 70.63 48.20L70.63 48.20Q70.60 48.07 70.54 47.72Q70.47 47.37 70.40 46.98Q70.34 46.58 70.29 46.22Q70.24 45.86 70.24 45.72L70.24 45.72Q70.24 45.33 70.29 44.95Q70.34 44.57 70.40 44.17L70.40 44.17Q70.60 42.92 70.68 41.65Q70.77 40.38 71.23 39.19L71.23 39.19Q71.16 38.83 71.16 38.50L71.16 38.50L71.16 37.77Q71.16 37.15 71.00 36.72L71.00 36.72Q71.26 36.29 71.26 35.76L71.26 35.76Q71.26 35.17 70.77 35.07L70.77 35.07L70.77 34.97Q70.77 34.28 70.30 33.88L70.30 33.88Q70.30 32.73 70.88 32.15Q71.46 31.57 72.42 31.14L72.42 31.14Q72.55 30.94 72.52 30.81L72.52 30.81Q72.75 30.88 72.94 30.94Q73.14 31.01 73.34 31.01L73.34 31.01Q73.67 31.01 73.93 30.91L73.93 30.91Q74.03 31.31 74.45 31.39Q74.86 31.47 75.12 31.60L75.12 31.60L75.12 32.03Q75.12 33.06 75.62 33.98L75.62 33.98Q75.48 34.24 75.45 34.54Q75.42 34.84 75.42 35.10L75.42 35.10Q75.42 35.50 75.45 35.89Q75.48 36.29 75.48 36.65L75.48 36.65Q75.48 37.05 75.40 37.44Q75.32 37.84 75.02 38.14L75.02 38.14Q74.99 38.56 74.97 39.11Q74.96 39.65 74.91 40.21Q74.86 40.78 74.73 41.30Q74.59 41.83 74.33 42.16L74.33 42.16Q74.30 42.66 74.28 43.17Q74.26 43.68 74.26 44.14L74.26 44.14Q74.26 44.87 74.35 45.86Q74.43 46.85 74.79 47.51L74.79 47.51Q74.96 47.77 75.43 47.90Q75.91 48.03 76.21 48.03L76.21 48.03Q76.57 48.03 76.95 47.92Q77.33 47.80 77.50 47.51L77.50 47.51Q77.69 47.54 77.76 47.70Q77.83 47.87 77.99 47.97L77.99 47.97Q79.87 47.18 81.75 46.45Q83.63 45.72 85.45 44.77L85.45 44.77Q85.71 44.90 86.01 44.90L86.01 44.90Q86.34 44.90 86.67 44.83Q87.00 44.77 87.33 44.77L87.33 44.77L87.56 44.77Q87.62 44.96 87.62 45.06ZM107.26 34.44L107.26 34.44Q107.06 34.74 107.03 35.10Q107.00 35.46 107.00 35.76L107.00 35.76Q107.00 36.16 107.02 36.54Q107.03 36.92 107.03 37.28L107.03 37.28L107.03 37.77Q106.97 38.00 106.83 38.24Q106.70 38.47 106.64 38.70L106.64 38.70Q106.17 39.92 106.17 41.14L106.17 41.14L106.17 41.20Q106.01 41.60 105.86 41.93Q105.71 42.26 105.58 42.57Q105.45 42.89 105.38 43.23Q105.32 43.58 105.35 44.04L105.35 44.04Q104.89 45.20 104.13 46.14Q103.37 47.08 102.64 48.07L102.64 48.07Q101.95 48.33 101.37 48.76Q100.80 49.19 100.27 49.72L100.27 49.72Q99.25 50.05 98.26 50.47Q97.27 50.90 96.48 51.63L96.48 51.63Q95.85 51.69 95.22 51.83Q94.59 51.96 94.00 52.22L94.00 52.22L93.60 52.22Q93.31 52.22 93.18 52.09L93.18 52.09Q92.75 52.32 92.29 52.40Q91.82 52.49 91.36 52.49L91.36 52.49Q90.77 52.49 90.19 52.40Q89.61 52.32 89.02 52.22L89.02 52.22Q88.69 51.76 88.10 51.51Q87.50 51.27 87.04 51.04L87.04 51.04Q86.08 49.72 85.65 48.48Q85.23 47.24 84.76 45.69L84.76 45.69Q84.83 45.23 84.99 44.78Q85.16 44.34 85.13 43.81L85.13 43.81Q85.72 42.09 86.69 40.69Q87.67 39.29 88.92 38.00L88.92 38.00Q88.92 37.81 89.00 37.67Q89.09 37.54 89.02 37.28L89.02 37.28Q89.05 37.31 89.15 37.31L89.15 37.31Q89.42 37.31 89.48 37.16Q89.55 37.01 89.51 36.82L89.51 36.82Q90.70 36.06 91.68 35.07Q92.65 34.08 93.90 33.42L93.90 33.42Q94.00 33.12 94.23 32.92Q94.46 32.73 94.59 32.46L94.59 32.46Q95.65 32.16 96.51 31.57Q97.37 30.98 98.32 30.52L98.32 30.52Q98.85 30.22 99.33 30.10Q99.81 29.99 100.37 29.86L100.37 29.86Q100.57 29.79 100.73 29.76Q100.90 29.72 101.09 29.72L101.09 29.72Q101.69 29.72 102.25 29.94Q102.81 30.15 103.40 30.15L103.40 30.15Q103.57 30.15 103.68 30.14Q103.80 30.12 103.93 30.09L103.93 30.09Q104.49 30.78 105.35 31.14L105.35 31.14Q105.55 31.64 105.83 32.00Q106.11 32.36 106.40 32.71Q106.70 33.06 106.95 33.47Q107.20 33.88 107.26 34.44ZM103.96 36.16L103.96 36.16Q103.96 35.99 103.93 35.86L103.93 35.86Q103.60 35.76 103.30 35.60Q103.01 35.43 102.64 35.43L102.64 35.43Q102.41 35.43 102.18 35.53L102.18 35.53Q102.15 35.30 102.00 35.20Q101.85 35.10 101.67 35.02Q101.49 34.94 101.31 34.89Q101.13 34.84 100.99 34.71L100.99 34.71Q100.90 34.44 100.78 34.16Q100.66 33.88 100.37 33.75L100.37 33.75Q100.07 34.05 99.68 34.23Q99.28 34.41 98.87 34.57Q98.45 34.74 98.08 34.97Q97.70 35.20 97.43 35.53L97.43 35.53L96.84 35.53Q96.64 35.89 96.28 36.07Q95.91 36.26 95.65 36.59L95.65 36.59Q95.12 36.85 94.68 37.23Q94.23 37.61 93.80 38.02Q93.37 38.43 92.96 38.86Q92.55 39.29 92.09 39.65L92.09 39.65Q91.66 40.58 91.15 41.25Q90.64 41.93 90.19 42.62Q89.75 43.32 89.43 44.12Q89.12 44.93 89.12 46.12L89.12 46.12L89.12 46.45Q89.12 46.61 89.15 46.78L89.15 46.78Q89.58 47.24 89.86 47.77Q90.14 48.30 90.80 48.53L90.80 48.53Q91.46 48.79 92.20 48.76Q92.95 48.73 93.64 48.92L93.64 48.92Q95.22 48.63 96.69 47.95Q98.16 47.27 99.48 46.32L99.48 46.32Q99.68 46.15 99.94 45.97Q100.20 45.79 100.37 45.59L100.37 45.59Q100.53 45.43 100.65 45.23Q100.76 45.03 100.90 44.87L100.90 44.87Q101.16 44.44 101.49 44.01Q101.82 43.58 102.18 43.22L102.18 43.22Q102.35 42.49 102.61 41.81Q102.88 41.14 103.14 40.48Q103.40 39.82 103.58 39.13Q103.77 38.43 103.77 37.67L103.77 37.67Q103.77 37.51 103.75 37.31Q103.73 37.11 103.70 36.95L103.70 36.95Q103.96 36.59 103.96 36.16ZM133.10 47.60L133.27 47.60Q133.27 47.93 133.09 48.15Q132.90 48.36 132.66 48.53Q132.41 48.69 132.16 48.82Q131.92 48.96 131.72 49.15L131.72 49.15Q131.59 49.29 131.54 49.47Q131.49 49.65 131.35 49.72L131.35 49.72Q131.16 49.88 130.93 49.91Q130.69 49.95 130.45 50.00Q130.20 50.05 129.97 50.13Q129.74 50.21 129.57 50.44L129.57 50.44Q128.02 50.61 126.52 50.87Q125.02 51.13 123.44 51.13L123.44 51.13Q123.14 51.13 122.79 51.18Q122.45 51.23 122.15 51.27L122.15 51.27Q121.46 51.33 120.78 51.36Q120.10 51.40 119.41 51.40L119.41 51.40Q118.46 51.40 117.50 51.32Q116.54 51.23 115.62 51.04L115.62 51.04Q115.39 50.87 115.09 50.77Q114.79 50.67 114.48 50.57Q114.17 50.47 113.90 50.34Q113.64 50.21 113.51 49.95L113.51 49.95Q113.01 49.91 112.63 49.75Q112.25 49.58 111.94 49.37Q111.63 49.15 111.30 48.92Q110.97 48.69 110.54 48.53L110.54 48.53Q110.21 48.07 109.86 47.62Q109.52 47.18 109.02 46.88L109.02 46.88Q108.92 46.25 108.71 45.62Q108.49 45.00 108.28 44.39Q108.06 43.78 107.92 43.15Q107.77 42.52 107.77 41.86L107.77 41.86Q107.77 41.40 107.90 40.74Q108.03 40.08 108.25 39.41Q108.46 38.73 108.76 38.14Q109.05 37.54 109.35 37.18L109.35 37.18Q109.45 37.08 109.58 37.01Q109.71 36.95 109.81 36.82L109.81 36.82Q110.11 36.49 110.44 36.27Q110.77 36.06 111.13 35.76L111.13 35.76Q111.26 35.63 111.35 35.46Q111.43 35.30 111.59 35.17L111.59 35.17Q111.69 35.10 111.87 35.13Q112.06 35.17 112.19 35.07L112.19 35.07Q112.32 34.97 112.32 34.84Q112.32 34.71 112.42 34.61L112.42 34.61Q112.45 34.57 112.62 34.59Q112.78 34.61 112.81 34.61L112.81 34.61Q113.05 34.61 113.34 34.29Q113.64 33.98 113.84 33.88L113.84 33.88Q114.07 33.75 114.30 33.70Q114.53 33.65 114.79 33.52L114.79 33.52Q115.16 33.32 115.50 33.20Q115.85 33.09 116.21 32.92L116.21 32.92Q116.41 32.86 116.57 32.69Q116.74 32.53 116.90 32.46L116.90 32.46Q117.20 32.36 117.55 32.31Q117.89 32.26 118.21 32.21Q118.52 32.16 118.83 32.08Q119.15 32.00 119.41 31.77L119.41 31.77L119.68 31.77Q120.27 31.77 120.83 31.60Q121.39 31.44 121.99 31.44L121.99 31.44Q122.15 31.44 122.48 31.51L122.48 31.51Q122.74 31.34 123.07 31.34L123.07 31.34Q123.63 31.34 124.20 31.62Q124.76 31.90 125.35 31.90L125.35 31.90L125.55 31.90Q125.68 31.90 125.81 31.87L125.81 31.87Q126.17 32.23 126.69 32.26Q127.20 32.30 127.56 32.56L127.56 32.56Q127.79 32.76 127.94 33.02Q128.09 33.29 128.19 33.58L128.19 33.58L128.39 34.18Q128.48 34.47 128.65 34.71L128.65 34.71Q128.48 35.89 127.68 36.60Q126.87 37.31 125.65 37.31L125.65 37.31Q125.19 37.31 124.87 37.20Q124.56 37.08 124.31 36.95Q124.06 36.82 123.80 36.68Q123.54 36.55 123.21 36.49L123.21 36.49Q123.57 35.83 123.67 35.07L123.67 35.07Q123.30 34.90 122.94 34.84Q122.58 34.77 122.25 34.61L122.25 34.61Q121.36 34.84 120.52 34.92Q119.68 35.00 118.95 35.63L118.95 35.63Q118.79 35.60 118.60 35.56Q118.42 35.53 118.26 35.53L118.26 35.53Q118.06 35.53 117.47 35.81Q116.87 36.09 116.20 36.45Q115.52 36.82 114.91 37.18Q114.30 37.54 114.07 37.67L114.07 37.67Q113.80 37.84 113.61 38.07Q113.41 38.30 113.21 38.55Q113.01 38.80 112.81 39.01Q112.62 39.22 112.32 39.32L112.32 39.32Q112.25 39.69 112.09 39.95Q111.92 40.21 111.73 40.51L111.73 40.51Q111.69 41.11 111.61 41.70Q111.53 42.29 111.53 42.89L111.53 42.89L111.53 43.32Q111.53 43.51 111.59 43.68L111.59 43.68Q111.92 44.11 112.14 44.64Q112.35 45.16 112.88 45.36L112.88 45.36Q112.91 45.49 112.86 45.53Q112.81 45.56 112.78 45.69L112.78 45.69Q112.98 46.05 113.29 46.27Q113.61 46.48 113.94 46.70Q114.27 46.91 114.56 47.14Q114.86 47.37 115.02 47.74L115.02 47.74Q115.52 47.74 115.96 47.90Q116.41 48.07 116.82 48.26Q117.23 48.46 117.61 48.63Q117.99 48.79 118.39 48.79L118.39 48.79Q118.75 48.79 119.05 48.69L119.05 48.69Q119.91 48.96 120.78 49.07Q121.66 49.19 122.55 49.19L122.55 49.19Q123.63 49.19 124.72 49.06Q125.81 48.92 126.90 48.82L126.90 48.82Q127.30 48.76 127.66 48.76Q128.02 48.76 128.39 48.69L128.39 48.69Q128.85 48.63 129.26 48.26Q129.67 47.90 130.07 47.74L130.07 47.74Q130.43 47.97 130.93 47.97L130.93 47.97Q131.49 47.97 132.01 47.79Q132.54 47.60 133.10 47.60L133.10 47.60ZM158.09 51.86L158.09 51.86Q158.09 52.12 157.85 52.29Q157.62 52.45 157.33 52.62L157.33 52.62L156.73 52.92Q156.44 53.05 156.34 53.28L156.34 53.28Q155.97 53.18 155.63 53.15Q155.28 53.11 154.95 53.11L154.95 53.11Q154.52 53.11 154.06 53.20Q153.60 53.28 153.33 53.64L153.33 53.64Q153.17 53.58 153.04 53.58L153.04 53.58L152.77 53.58Q152.28 53.58 151.77 53.66Q151.26 53.74 150.76 53.74L150.76 53.74Q150.50 53.74 150.25 53.71Q150.00 53.67 149.80 53.51L149.80 53.51Q149.51 53.61 149.18 53.61L149.18 53.61Q148.75 53.61 148.35 53.48Q147.96 53.34 147.58 53.16Q147.20 52.98 146.80 52.82Q146.41 52.65 146.01 52.55L146.01 52.55L145.78 52.09Q145.25 51.99 144.81 51.78Q144.36 51.56 143.93 51.30Q143.50 51.04 143.09 50.79Q142.68 50.54 142.25 50.44L142.25 50.44Q142.09 50.31 141.95 50.19Q141.82 50.08 141.76 49.85L141.76 49.85Q141.33 49.75 140.96 49.58L140.96 49.58L140.27 49.22Q139.94 49.02 139.53 48.87Q139.12 48.73 138.56 48.69L138.56 48.69Q138.36 48.40 137.99 48.13Q137.63 47.87 137.27 47.87L137.27 47.87Q137.04 47.87 136.91 47.97L136.91 47.97L136.91 48.13Q136.91 48.53 137.14 48.92Q137.37 49.32 137.73 49.48L137.73 49.48Q137.70 49.55 137.70 49.68L137.70 49.68Q137.70 49.88 137.78 50.08Q137.86 50.28 138.09 50.34L138.09 50.34Q137.96 50.71 137.76 51.08Q137.57 51.46 137.27 51.79Q136.97 52.12 136.63 52.34Q136.28 52.55 135.85 52.55L135.85 52.55Q135.72 52.62 135.67 52.75Q135.62 52.88 135.60 53.03Q135.59 53.18 135.54 53.31Q135.49 53.44 135.39 53.51L135.39 53.51Q135.26 53.54 135.03 53.54L135.03 53.54Q134.70 53.54 134.46 53.44Q134.23 53.34 133.97 53.18L133.97 53.18L133.97 53.05Q133.97 52.65 133.82 52.42Q133.67 52.19 133.49 51.98Q133.31 51.76 133.16 51.53Q133.01 51.30 133.01 50.90L133.01 50.90Q132.91 50.97 132.80 51.00Q132.68 51.04 132.65 51.13L132.65 51.13Q132.58 50.80 132.58 50.57L132.58 50.57Q132.58 49.91 132.80 49.32Q133.01 48.73 133.01 48.07L133.01 48.07L133.01 47.57Q133.01 46.81 132.98 46.09Q132.95 45.36 132.95 44.64L132.95 44.64Q132.95 44.01 132.98 43.40Q133.01 42.79 133.11 42.16L133.11 42.16Q133.47 39.98 133.72 37.82Q133.97 35.66 134.53 33.52L134.53 33.52Q134.50 33.35 134.45 33.19Q134.40 33.02 134.40 32.86L134.40 32.86Q134.40 32.73 134.43 32.69L134.43 32.69Q134.56 32.03 135.03 31.59Q135.49 31.14 136.21 31.14L136.21 31.14L136.31 31.14Q136.71 31.31 136.92 31.62Q137.14 31.93 137.60 31.87L137.60 31.87Q137.60 31.93 137.58 32.00Q137.57 32.07 137.57 32.13L137.57 32.13Q137.57 32.49 137.76 32.66Q137.96 32.82 138.23 33.02L138.23 33.02Q138.06 33.35 138.01 33.78Q137.96 34.21 137.93 34.64Q137.90 35.07 137.81 35.46Q137.73 35.86 137.50 36.12L137.50 36.12Q137.63 36.45 137.66 36.78Q137.70 37.11 137.70 37.48L137.70 37.48Q137.70 37.84 137.66 38.22Q137.63 38.60 137.63 38.99L137.63 38.99Q137.63 39.36 137.73 39.65L137.73 39.65Q138.46 39.65 138.56 38.96L138.56 38.96Q139.41 38.73 140.09 38.32Q140.77 37.91 141.39 37.44Q142.02 36.98 142.63 36.49Q143.24 35.99 144.00 35.63L144.00 35.63L144.00 35.56Q144.00 35.40 144.10 35.35Q144.20 35.30 144.13 35.07L144.13 35.07Q144.63 34.90 144.97 34.62Q145.32 34.34 145.62 34.01L145.62 34.01L146.24 33.32Q146.57 32.96 146.97 32.69L146.97 32.69Q147.23 32.13 147.45 31.51Q147.66 30.88 148.02 30.35L148.02 30.35Q148.65 30.35 149.39 30.45Q150.13 30.55 150.66 30.91L150.66 30.91Q150.60 31.18 150.89 31.27L150.89 31.27Q150.53 32.66 149.80 33.76Q149.08 34.87 147.92 35.63L147.92 35.63Q147.76 35.99 147.50 36.26Q147.23 36.52 146.97 36.77Q146.70 37.01 146.44 37.28Q146.18 37.54 146.01 37.91L146.01 37.91Q145.62 37.97 145.33 38.14Q145.05 38.30 144.81 38.52Q144.56 38.73 144.28 38.91Q144.00 39.09 143.67 39.19L143.67 39.19Q143.40 39.52 143.06 39.75Q142.71 39.98 142.37 40.20Q142.02 40.41 141.72 40.66Q141.43 40.91 141.29 41.30L141.29 41.30L140.44 41.30Q140.07 41.93 139.50 42.34Q138.92 42.75 138.32 43.12L138.32 43.12Q138.42 43.51 138.69 43.76Q138.95 44.01 139.26 44.21Q139.58 44.40 139.89 44.62Q140.20 44.83 140.44 45.13L140.44 45.13Q141.82 45.66 143.11 46.33Q144.39 47.01 145.55 47.97L145.55 47.97Q145.62 47.93 145.71 47.93L145.71 47.93Q145.98 47.93 146.14 48.08Q146.31 48.23 146.60 48.20L146.60 48.20Q146.74 48.53 146.97 48.64Q147.20 48.76 147.45 48.82Q147.69 48.89 147.92 49.02Q148.16 49.15 148.25 49.48L148.25 49.48Q148.75 49.52 149.16 49.68Q149.57 49.85 149.90 50.21L149.90 50.21L150.30 50.21Q151.36 50.21 152.35 50.41Q153.33 50.61 154.36 50.61L154.36 50.61Q154.89 50.61 155.38 50.52Q155.87 50.44 156.34 50.21L156.34 50.21Q156.50 50.31 156.70 50.41Q156.90 50.51 157.13 50.51L157.13 50.51Q157.29 50.51 157.62 50.44L157.62 50.44Q157.66 50.80 157.87 51.13Q158.09 51.46 158.09 51.86Z" transform="translate(0, 0)"></path></g></svg></g></svg>